<svg width="18" height="19" viewBox="0 0 18 19" fill="none" xmlns="http://www.w3.org/2000/svg">
    <path
        d="M16.9331 11.041C16.7442 12.481 16.167 13.8424 15.2632 14.9792C14.3595 16.116 13.1633 16.9854 11.803 17.494C10.4427 18.0027 8.96964 18.1315 7.54172 17.8666C6.1138 17.6017 4.78492 16.9531 3.69761 15.9903C2.6103 15.0276 1.80557 13.787 1.36973 12.4017C0.933892 11.0163 0.88338 9.53848 1.22362 8.12661C1.56385 6.71474 2.282 5.42212 3.30104 4.38738C4.32007 3.35264 5.60156 2.61481 7.00806 2.25302C10.9071 1.25102 14.9431 3.26002 16.4331 7.00002"
        stroke="white" stroke-width="2" stroke-linecap="round" stroke-linejoin="round" />
    <path d="M17 2V7H12" stroke="white" stroke-width="2" stroke-linecap="round" stroke-linejoin="round" />
</svg>